<svg width="48" height="48" viewBox="0 0 48 48" fill="none" xmlns="http://www.w3.org/2000/svg">
<circle cx="24" cy="24" r="23.5" fill="white" stroke="#CCD1D6"/>
<rect x="16.6001" y="9.59998" width="16.8" height="18" fill="black"/>
<path d="M33.4 6H16.6C15.6455 6.00095 14.7304 6.38054 14.0555 7.05547C13.3805 7.73039 13.001 8.64551 13 9.6V26.4C13.001 27.3545 13.3805 28.2696 14.0555 28.9445C14.7304 29.6195 15.6455 29.999 16.6 30H33.4C34.3545 29.999 35.2696 29.6195 35.9445 28.9445C36.6195 28.2696 36.999 27.3545 37 26.4V9.6C36.999 8.64551 36.6195 7.73039 35.9445 7.05547C35.2696 6.38054 34.3545 6.00095 33.4 6V6ZM31 13.2C29.008 13.2 27.5728 15.8124 26.0512 18.5784C24.2608 21.834 22.4092 25.2 19 25.2C18.6817 25.2 18.3765 25.0736 18.1515 24.8485C17.9264 24.6235 17.8 24.3183 17.8 24C17.8 23.6817 17.9264 23.3765 18.1515 23.1515C18.3765 22.9264 18.6817 22.8 19 22.8C20.992 22.8 22.4272 20.1876 23.9488 17.4216C25.7392 14.166 27.5908 10.8 31 10.8C31.3183 10.8 31.6235 10.9264 31.8485 11.1515C32.0736 11.3765 32.2 11.6817 32.2 12C32.2 12.3183 32.0736 12.6235 31.8485 12.8485C31.6235 13.0736 31.3183 13.2 31 13.2Z" fill="white"/>
<path d="M10.9138 28.42V37H16.4938V36.04H11.9938V28.42H10.9138ZM19.5919 37.168C17.7199 37.168 16.5919 35.848 16.5919 33.94C16.5919 32.032 17.7199 30.712 19.5919 30.712C21.4519 30.712 22.5799 32.032 22.5799 33.94C22.5799 35.848 21.4519 37.168 19.5919 37.168ZM19.5919 36.328C20.9599 36.328 21.6199 35.248 21.6199 33.94C21.6199 32.632 20.9599 31.552 19.5919 31.552C18.2119 31.552 17.5519 32.632 17.5519 33.94C17.5519 35.248 18.2119 36.328 19.5919 36.328ZM25.8561 31.72V30.88H24.6561V28.84H23.6961V30.88H22.7961V31.72H23.6961V35.5C23.6961 36.748 24.3201 37.072 25.1361 37.072C25.3881 37.072 25.6401 37.048 25.8561 37V36.16C25.0401 36.22 24.6561 36.1 24.6561 35.404V31.72H25.8561ZM29.1083 31.72V30.88H27.9083V28.84H26.9483V30.88H26.0483V31.72H26.9483V35.5C26.9483 36.748 27.5723 37.072 28.3883 37.072C28.6403 37.072 28.8923 37.048 29.1083 37V36.16C28.2923 36.22 27.9083 36.1 27.9083 35.404V31.72H29.1083ZM30.4723 29.692C30.7483 29.692 31.0723 29.488 31.0723 29.116C31.0723 28.744 30.7483 28.54 30.4723 28.54C30.2083 28.54 29.8723 28.744 29.8723 29.116C29.8723 29.488 30.2083 29.692 30.4723 29.692ZM29.9923 30.88V37H30.9523V30.88H29.9923ZM34.7558 36.328C33.4238 36.328 32.7638 35.296 32.7638 34.192H37.5998C37.5998 32.02 36.6638 30.712 34.7438 30.712C32.9558 30.712 31.8038 31.9 31.8038 33.94C31.8038 35.86 32.9318 37.168 34.7918 37.168C36.3158 37.168 37.1918 36.256 37.5038 35.116H36.5438C36.4358 35.536 35.9798 36.328 34.7558 36.328ZM34.7438 31.552C35.8958 31.552 36.6398 32.368 36.6398 33.352H32.7638C32.7638 32.368 33.5918 31.552 34.7438 31.552Z" fill="#14181F"/>
</svg>
